<svg width="450" height="225" viewBox="0 0 450 225" fill="none" xmlns="http://www.w3.org/2000/svg">
<mask id="mask0_855_2981" style="mask-type:alpha" maskUnits="userSpaceOnUse" x="0" y="0" width="450" height="225">
<rect width="450" height="225" fill="#D9D9D9"/>
</mask>
<g mask="url(#mask0_855_2981)">
<g filter="url(#filter0_d_855_2981)">
<mask id="mask1_855_2981" style="mask-type:alpha" maskUnits="userSpaceOnUse" x="99" y="46" width="190" height="71">
<rect x="99" y="46" width="190" height="70.1288" rx="12.2318" fill="url(#paint0_linear_855_2981)"/>
</mask>
<g mask="url(#mask1_855_2981)">
<rect x="99" y="46" width="190" height="70.1288" rx="12.2318" fill="url(#paint1_linear_855_2981)"/>
<path opacity="0.7" d="M134.973 65.7059H133.68C133.603 65.334 133.47 65.0074 133.279 64.7259C133.091 64.4445 132.862 64.2082 132.59 64.017C132.323 63.8225 132.026 63.6765 131.699 63.5792C131.373 63.4819 131.032 63.4333 130.678 63.4333C130.031 63.4333 129.446 63.5966 128.921 63.9232C128.4 64.2499 127.984 64.7311 127.675 65.3671C127.369 66.003 127.217 66.7831 127.217 67.7074C127.217 68.6318 127.369 69.4119 127.675 70.0478C127.984 70.6837 128.4 71.165 128.921 71.4916C129.446 71.8183 130.031 71.9816 130.678 71.9816C131.032 71.9816 131.373 71.9329 131.699 71.8356C132.026 71.7383 132.323 71.5941 132.59 71.403C132.862 71.2084 133.091 70.9704 133.279 70.6889C133.47 70.404 133.603 70.0773 133.68 69.709H134.973C134.875 70.2546 134.698 70.7428 134.441 71.1737C134.184 71.6046 133.864 71.9712 133.482 72.2735C133.1 72.5723 132.67 72.7999 132.194 72.9563C131.722 73.1127 131.216 73.1909 130.678 73.1909C129.767 73.1909 128.957 72.9685 128.249 72.5237C127.54 72.0789 126.982 71.4465 126.575 70.6264C126.169 69.8063 125.966 68.8333 125.966 67.7074C125.966 66.5815 126.169 65.6086 126.575 64.7885C126.982 63.9684 127.54 63.336 128.249 62.8912C128.957 62.4464 129.767 62.224 130.678 62.224C131.216 62.224 131.722 62.3022 132.194 62.4585C132.67 62.6149 133.1 62.8443 133.482 63.1466C133.864 63.4454 134.184 63.8103 134.441 64.2412C134.698 64.6686 134.875 65.1568 134.973 65.7059ZM137.061 73.0449V62.3699H143.504V63.5167H138.354V67.1236H143.17V68.2704H138.354V71.8982H143.587V73.0449H137.061ZM154.841 67.7074C154.841 68.8333 154.638 69.8063 154.231 70.6264C153.824 71.4465 153.267 72.0789 152.558 72.5237C151.849 72.9685 151.039 73.1909 150.129 73.1909C149.218 73.1909 148.409 72.9685 147.7 72.5237C146.991 72.0789 146.433 71.4465 146.027 70.6264C145.62 69.8063 145.417 68.8333 145.417 67.7074C145.417 66.5815 145.62 65.6086 146.027 64.7885C146.433 63.9684 146.991 63.336 147.7 62.8912C148.409 62.4464 149.218 62.224 150.129 62.224C151.039 62.224 151.849 62.4464 152.558 62.8912C153.267 63.336 153.824 63.9684 154.231 64.7885C154.638 65.6086 154.841 66.5815 154.841 67.7074ZM153.59 67.7074C153.59 66.7831 153.435 66.003 153.126 65.3671C152.82 64.7311 152.405 64.2499 151.88 63.9232C151.359 63.5966 150.775 63.4333 150.129 63.4333C149.483 63.4333 148.897 63.5966 148.372 63.9232C147.851 64.2499 147.436 64.7311 147.127 65.3671C146.821 66.003 146.668 66.7831 146.668 67.7074C146.668 68.6318 146.821 69.4119 147.127 70.0478C147.436 70.6837 147.851 71.165 148.372 71.4916C148.897 71.8183 149.483 71.9816 150.129 71.9816C150.775 71.9816 151.359 71.8183 151.88 71.4916C152.405 71.165 152.82 70.6837 153.126 70.0478C153.435 69.4119 153.59 68.6318 153.59 67.7074ZM163.332 73.2326C162.825 73.2326 162.364 73.137 161.951 72.9459C161.537 72.7513 161.209 72.4716 160.965 72.1067C160.722 71.7383 160.601 71.2936 160.601 70.7723C160.601 70.3136 160.691 69.9418 160.872 69.6569C161.052 69.3684 161.294 69.1426 161.596 68.9793C161.898 68.8159 162.232 68.6943 162.597 68.6144C162.965 68.531 163.335 68.465 163.707 68.4163C164.194 68.3538 164.588 68.3069 164.89 68.2756C165.196 68.2408 165.419 68.1835 165.558 68.1036C165.7 68.0236 165.771 67.8846 165.771 67.6866V67.6449C165.771 67.1306 165.631 66.731 165.349 66.446C165.071 66.1611 164.649 66.0186 164.082 66.0186C163.495 66.0186 163.035 66.1472 162.701 66.4043C162.368 66.6615 162.133 66.936 161.998 67.2279L160.83 66.8109C161.038 66.3244 161.316 65.9456 161.664 65.6746C162.015 65.4001 162.397 65.2089 162.811 65.1012C163.228 64.99 163.638 64.9344 164.041 64.9344C164.298 64.9344 164.593 64.9657 164.927 65.0283C165.264 65.0873 165.589 65.2107 165.902 65.3983C166.218 65.586 166.48 65.8692 166.689 66.248C166.897 66.6267 167.001 67.1341 167.001 67.77V73.0449H165.771V71.9607H165.709C165.625 72.1345 165.486 72.3204 165.292 72.5185C165.097 72.7165 164.838 72.8851 164.515 73.0241C164.192 73.1631 163.798 73.2326 163.332 73.2326ZM163.52 72.1275C164.006 72.1275 164.416 72.032 164.75 71.8409C165.087 71.6497 165.34 71.403 165.511 71.1007C165.684 70.7984 165.771 70.4804 165.771 70.1468V69.0209C165.719 69.0835 165.605 69.1408 165.427 69.193C165.254 69.2416 165.052 69.285 164.823 69.3233C164.597 69.358 164.376 69.3893 164.161 69.4171C163.949 69.4414 163.777 69.4623 163.645 69.4796C163.325 69.5213 163.026 69.5891 162.748 69.6829C162.474 69.7733 162.251 69.9105 162.081 70.0947C161.914 70.2754 161.831 70.5221 161.831 70.8349C161.831 71.2623 161.989 71.5855 162.305 71.8044C162.625 72.0198 163.03 72.1275 163.52 72.1275ZM172.729 65.0387V66.0812H168.579V65.0387H172.729ZM169.789 63.1205H171.019V70.7515C171.019 71.099 171.069 71.3596 171.17 71.5333C171.274 71.7036 171.406 71.8183 171.566 71.8773C171.73 71.9329 171.902 71.9607 172.082 71.9607C172.218 71.9607 172.329 71.9538 172.416 71.9399C172.503 71.9225 172.572 71.9086 172.624 71.8982L172.875 73.0032C172.791 73.0345 172.675 73.0658 172.525 73.097C172.376 73.1318 172.186 73.1492 171.957 73.1492C171.61 73.1492 171.269 73.0745 170.935 72.925C170.605 72.7756 170.331 72.548 170.112 72.2422C169.896 71.9364 169.789 71.5507 169.789 71.0851V63.1205ZM184.712 65.0387C184.649 64.5105 184.396 64.1004 183.951 63.8086C183.506 63.5167 182.96 63.3707 182.314 63.3707C181.842 63.3707 181.428 63.4472 181.074 63.6001C180.723 63.753 180.448 63.9632 180.25 64.2308C180.055 64.4983 179.958 64.8024 179.958 65.1429C179.958 65.4279 180.026 65.6729 180.161 65.8779C180.3 66.0794 180.478 66.248 180.693 66.3835C180.909 66.5155 181.134 66.625 181.371 66.7119C181.607 66.7953 181.824 66.863 182.022 66.9151L183.106 67.207C183.384 67.28 183.694 67.3808 184.034 67.5094C184.378 67.6379 184.707 67.8134 185.019 68.0358C185.336 68.2547 185.596 68.5362 185.801 68.8802C186.006 69.2242 186.109 69.6464 186.109 70.1468C186.109 70.7237 185.958 71.2449 185.655 71.7105C185.356 72.1762 184.919 72.5463 184.342 72.8208C183.768 73.0953 183.072 73.2326 182.252 73.2326C181.487 73.2326 180.825 73.1092 180.266 72.8625C179.71 72.6158 179.272 72.2717 178.952 71.8304C178.636 71.3891 178.457 70.8766 178.415 70.2928H179.75C179.784 70.6959 179.92 71.0295 180.156 71.2936C180.396 71.5542 180.698 71.7488 181.063 71.8773C181.432 72.0024 181.828 72.065 182.252 72.065C182.745 72.065 183.188 71.9851 183.581 71.8252C183.973 71.6619 184.284 71.436 184.514 71.1476C184.743 70.8557 184.858 70.5152 184.858 70.126C184.858 69.7715 184.759 69.4831 184.561 69.2607C184.363 69.0383 184.102 68.8576 183.779 68.7186C183.456 68.5796 183.106 68.458 182.731 68.3538L181.418 67.9785C180.584 67.7387 179.923 67.3964 179.437 66.9516C178.95 66.5068 178.707 65.9248 178.707 65.2055C178.707 64.6078 178.869 64.0865 179.192 63.6418C179.519 63.1935 179.956 62.846 180.505 62.5993C181.058 62.3491 181.675 62.224 182.356 62.224C183.044 62.224 183.655 62.3473 184.191 62.5941C184.726 62.8373 185.15 63.1709 185.462 63.5948C185.779 64.0188 185.945 64.5001 185.963 65.0387H184.712ZM191.424 73.2117C190.653 73.2117 189.987 73.0414 189.428 72.7009C188.872 72.3569 188.443 71.8773 188.14 71.2623C187.841 70.6437 187.692 69.9244 187.692 69.1043C187.692 68.2843 187.841 67.5615 188.14 66.936C188.443 66.307 188.863 65.8171 189.402 65.4661C189.944 65.1117 190.576 64.9344 191.299 64.9344C191.716 64.9344 192.128 65.0039 192.534 65.1429C192.941 65.2819 193.311 65.5078 193.645 65.8205C193.978 66.1298 194.244 66.5398 194.442 67.0507C194.64 67.5615 194.739 68.1904 194.739 68.9376V69.4588H188.568V68.3955H193.488C193.488 67.9437 193.398 67.5406 193.217 67.1862C193.04 66.8317 192.786 66.552 192.456 66.347C192.13 66.142 191.744 66.0395 191.299 66.0395C190.809 66.0395 190.385 66.1611 190.027 66.4043C189.673 66.6441 189.4 66.9568 189.209 67.3426C189.018 67.7283 188.922 68.1418 188.922 68.5831V69.292C188.922 69.8966 189.026 70.4092 189.235 70.8297C189.447 71.2466 189.741 71.5646 190.116 71.7835C190.491 71.999 190.927 72.1067 191.424 72.1067C191.747 72.1067 192.039 72.0615 192.3 71.9712C192.564 71.8773 192.792 71.7383 192.983 71.5542C193.174 71.3665 193.321 71.1337 193.426 70.8557L194.614 71.1893C194.489 71.5924 194.279 71.9468 193.983 72.2526C193.688 72.555 193.323 72.7913 192.889 72.9615C192.454 73.1283 191.966 73.2117 191.424 73.2117ZM199.863 73.2117C199.14 73.2117 198.506 73.0397 197.96 72.6957C197.418 72.3517 196.994 71.8704 196.689 71.2519C196.386 70.6333 196.235 69.9105 196.235 69.0835C196.235 68.2495 196.386 67.5215 196.689 66.8995C196.994 66.2775 197.418 65.7945 197.96 65.4505C198.506 65.1064 199.14 64.9344 199.863 64.9344C200.586 64.9344 201.218 65.1064 201.76 65.4505C202.306 65.7945 202.73 66.2775 203.032 66.8995C203.338 67.5215 203.491 68.2495 203.491 69.0835C203.491 69.9105 203.338 70.6333 203.032 71.2519C202.73 71.8704 202.306 72.3517 201.76 72.6957C201.218 73.0397 200.586 73.2117 199.863 73.2117ZM199.863 72.1067C200.412 72.1067 200.864 71.966 201.218 71.6845C201.573 71.403 201.835 71.0329 202.005 70.5742C202.176 70.1156 202.261 69.6186 202.261 69.0835C202.261 68.5484 202.176 68.0497 202.005 67.5875C201.835 67.1254 201.573 66.7518 201.218 66.4669C200.864 66.1819 200.412 66.0395 199.863 66.0395C199.314 66.0395 198.862 66.1819 198.508 66.4669C198.153 66.7518 197.891 67.1254 197.721 67.5875C197.55 68.0497 197.465 68.5484 197.465 69.0835C197.465 69.6186 197.55 70.1156 197.721 70.5742C197.891 71.0329 198.153 71.403 198.508 71.6845C198.862 71.966 199.314 72.1067 199.863 72.1067ZM205.535 73.0449V62.3699H206.766V66.3105H206.87C206.96 66.1715 207.085 65.9943 207.245 65.7788C207.408 65.5599 207.641 65.3653 207.944 65.1951C208.249 65.0213 208.663 64.9344 209.184 64.9344C209.858 64.9344 210.452 65.103 210.967 65.44C211.481 65.7771 211.882 66.2549 212.171 66.8734C212.459 67.492 212.603 68.2217 212.603 69.0626C212.603 69.9105 212.459 70.6455 212.171 71.2675C211.882 71.886 211.483 72.3656 210.972 72.7061C210.461 73.0432 209.872 73.2117 209.205 73.2117C208.691 73.2117 208.279 73.1266 207.97 72.9563C207.66 72.7826 207.422 72.5862 207.255 72.3673C207.089 72.1449 206.96 71.9607 206.87 71.8148H206.724V73.0449H205.535ZM206.745 69.0418C206.745 69.6464 206.833 70.1798 207.011 70.642C207.188 71.1007 207.447 71.4604 207.787 71.721C208.128 71.9781 208.545 72.1067 209.038 72.1067C209.552 72.1067 209.982 71.9712 210.326 71.7001C210.673 71.4256 210.934 71.0573 211.107 70.5951C211.285 70.1295 211.373 69.6117 211.373 69.0418C211.373 68.4789 211.286 67.9715 211.113 67.5198C210.942 67.0646 210.684 66.7049 210.336 66.4408C209.992 66.1732 209.559 66.0395 209.038 66.0395C208.538 66.0395 208.117 66.1663 207.777 66.42C207.436 66.6702 207.179 67.0211 207.005 67.4729C206.832 67.9211 206.745 68.4441 206.745 69.0418ZM214.485 73.0449V65.0387H215.674V66.248H215.757C215.903 65.8518 216.167 65.5304 216.549 65.2837C216.931 65.0369 217.362 64.9136 217.842 64.9136C217.932 64.9136 218.045 64.9153 218.181 64.9188C218.316 64.9223 218.419 64.9275 218.488 64.9344V66.1854C218.447 66.175 218.351 66.1593 218.202 66.1385C218.056 66.1142 217.901 66.102 217.738 66.102C217.348 66.102 217.001 66.1837 216.695 66.347C216.393 66.5068 216.153 66.7292 215.976 67.0142C215.802 67.2956 215.715 67.6171 215.715 67.9785V73.0449H214.485ZM222.955 73.2117C222.232 73.2117 221.598 73.0397 221.053 72.6957C220.511 72.3517 220.087 71.8704 219.781 71.2519C219.479 70.6333 219.327 69.9105 219.327 69.0835C219.327 68.2495 219.479 67.5215 219.781 66.8995C220.087 66.2775 220.511 65.7945 221.053 65.4505C221.598 65.1064 222.232 64.9344 222.955 64.9344C223.678 64.9344 224.31 65.1064 224.853 65.4505C225.398 65.7945 225.822 66.2775 226.124 66.8995C226.43 67.5215 226.583 68.2495 226.583 69.0835C226.583 69.9105 226.43 70.6333 226.124 71.2519C225.822 71.8704 225.398 72.3517 224.853 72.6957C224.31 73.0397 223.678 73.2117 222.955 73.2117ZM222.955 72.1067C223.504 72.1067 223.956 71.966 224.31 71.6845C224.665 71.403 224.927 71.0329 225.098 70.5742C225.268 70.1156 225.353 69.6186 225.353 69.0835C225.353 68.5484 225.268 68.0497 225.098 67.5875C224.927 67.1254 224.665 66.7518 224.31 66.4669C223.956 66.1819 223.504 66.0395 222.955 66.0395C222.406 66.0395 221.954 66.1819 221.6 66.4669C221.246 66.7518 220.983 67.1254 220.813 67.5875C220.643 68.0497 220.558 68.5484 220.558 69.0835C220.558 69.6186 220.643 70.1156 220.813 70.5742C220.983 71.0329 221.246 71.403 221.6 71.6845C221.954 71.966 222.406 72.1067 222.955 72.1067ZM231.943 65.0387V66.0812H227.794V65.0387H231.943ZM229.003 63.1205H230.233V70.7515C230.233 71.099 230.283 71.3596 230.384 71.5333C230.488 71.7036 230.62 71.8183 230.78 71.8773C230.944 71.9329 231.116 71.9607 231.296 71.9607C231.432 71.9607 231.543 71.9538 231.63 71.9399C231.717 71.9225 231.786 71.9086 231.838 71.8982L232.089 73.0032C232.005 73.0345 231.889 73.0658 231.739 73.097C231.59 73.1318 231.401 73.1492 231.171 73.1492C230.824 73.1492 230.483 73.0745 230.15 72.925C229.82 72.7756 229.545 72.548 229.326 72.2422C229.111 71.9364 229.003 71.5507 229.003 71.0851V63.1205ZM235.195 68.2287V73.0449H233.965V62.3699H235.195V66.2897H235.299C235.487 65.8761 235.769 65.5478 236.144 65.3045C236.523 65.0578 237.027 64.9344 237.655 64.9344C238.201 64.9344 238.679 65.0439 239.089 65.2628C239.499 65.4783 239.817 65.8101 240.043 66.2584C240.272 66.7032 240.387 67.2696 240.387 67.9576V73.0449H239.157V68.041C239.157 67.4051 238.992 66.9134 238.661 66.5659C238.335 66.2149 237.881 66.0395 237.301 66.0395C236.898 66.0395 236.537 66.1246 236.217 66.2949C235.901 66.4651 235.65 66.7136 235.466 67.0402C235.286 67.3669 235.195 67.763 235.195 68.2287ZM245.994 73.2117C245.223 73.2117 244.557 73.0414 243.998 72.7009C243.442 72.3569 243.013 71.8773 242.71 71.2623C242.411 70.6437 242.262 69.9244 242.262 69.1043C242.262 68.2843 242.411 67.5615 242.71 66.936C243.013 66.307 243.433 65.8171 243.972 65.4661C244.514 65.1117 245.146 64.9344 245.869 64.9344C246.286 64.9344 246.698 65.0039 247.104 65.1429C247.511 65.2819 247.881 65.5078 248.215 65.8205C248.548 66.1298 248.814 66.5398 249.012 67.0507C249.21 67.5615 249.309 68.1904 249.309 68.9376V69.4588H243.138V68.3955H248.058C248.058 67.9437 247.968 67.5406 247.787 67.1862C247.61 66.8317 247.356 66.552 247.026 66.347C246.699 66.142 246.314 66.0395 245.869 66.0395C245.379 66.0395 244.955 66.1611 244.597 66.4043C244.243 66.6441 243.97 66.9568 243.779 67.3426C243.588 67.7283 243.492 68.1418 243.492 68.5831V69.292C243.492 69.8966 243.596 70.4092 243.805 70.8297C244.017 71.2466 244.31 71.5646 244.686 71.7835C245.061 71.999 245.497 72.1067 245.994 72.1067C246.317 72.1067 246.609 72.0615 246.87 71.9712C247.134 71.8773 247.361 71.7383 247.553 71.5542C247.744 71.3665 247.891 71.1337 247.996 70.8557L249.184 71.1893C249.059 71.5924 248.849 71.9468 248.553 72.2526C248.258 72.555 247.893 72.7913 247.459 72.9615C247.024 73.1283 246.536 73.2117 245.994 73.2117ZM251.18 73.0449V65.0387H252.369V66.248H252.452C252.598 65.8518 252.862 65.5304 253.244 65.2837C253.627 65.0369 254.058 64.9136 254.537 64.9136C254.628 64.9136 254.74 64.9153 254.876 64.9188C255.011 64.9223 255.114 64.9275 255.183 64.9344V66.1854C255.142 66.175 255.046 66.1593 254.897 66.1385C254.751 66.1142 254.596 66.102 254.433 66.102C254.044 66.102 253.696 66.1837 253.39 66.347C253.088 66.5068 252.848 66.7292 252.671 67.0142C252.497 67.2956 252.41 67.6171 252.41 67.9785V73.0449H251.18ZM262.313 66.8317L261.208 67.1445C261.138 66.9603 261.036 66.7814 260.9 66.6076C260.768 66.4304 260.587 66.2844 260.358 66.1698C260.129 66.0551 259.835 65.9978 259.477 65.9978C258.987 65.9978 258.579 66.1107 258.252 66.3366C257.929 66.559 257.768 66.8422 257.768 67.1862C257.768 67.492 257.879 67.7335 258.101 67.9107C258.324 68.0879 258.671 68.2356 259.144 68.3538L260.332 68.6457C261.048 68.8194 261.581 69.0852 261.932 69.4432C262.283 69.7976 262.459 70.2546 262.459 70.814C262.459 71.2727 262.327 71.6827 262.063 72.0441C261.802 72.4055 261.437 72.6905 260.968 72.899C260.499 73.1075 259.953 73.2117 259.331 73.2117C258.515 73.2117 257.839 73.0345 257.304 72.6801C256.768 72.3256 256.43 71.8078 256.287 71.1268L257.455 70.8349C257.566 71.2658 257.776 71.5889 258.085 71.8044C258.398 72.0198 258.807 72.1275 259.31 72.1275C259.884 72.1275 260.339 72.0059 260.676 71.7627C261.017 71.516 261.187 71.2206 261.187 70.8766C261.187 70.5986 261.09 70.3657 260.895 70.1781C260.7 69.987 260.402 69.8445 259.998 69.7507L258.664 69.4379C257.931 69.2642 257.392 68.9949 257.048 68.63C256.708 68.2617 256.537 67.8012 256.537 67.2487C256.537 66.797 256.664 66.3974 256.918 66.0499C257.175 65.7024 257.524 65.4296 257.966 65.2315C258.41 65.0335 258.914 64.9344 259.477 64.9344C260.269 64.9344 260.891 65.1082 261.343 65.4557C261.798 65.8032 262.122 66.2619 262.313 66.8317Z" fill="#1C1C1E"/>
<path d="M128.78 99.248H125.555L130.469 85.0147H134.347L139.254 99.248H136.029L132.464 88.2673H132.352L128.78 99.248ZM128.579 93.6534H136.196V96.0025H128.579V93.6534ZM143.872 85.0147V99.248H140.911V85.0147H143.872ZM151.108 99.4565C150.01 99.4565 149.065 99.2341 148.273 98.7894C147.485 98.3399 146.878 97.7052 146.452 96.8851C146.026 96.0604 145.813 95.0851 145.813 93.9592C145.813 92.8611 146.026 91.8974 146.452 91.0681C146.878 90.2387 147.478 89.5924 148.252 89.129C149.03 88.6657 149.943 88.4341 150.99 88.4341C151.694 88.4341 152.35 88.5476 152.957 88.7746C153.569 88.997 154.101 89.3329 154.556 89.7823C155.014 90.2318 155.371 90.797 155.626 91.4781C155.881 92.1546 156.008 92.9468 156.008 93.855V94.6681H146.994V92.8333H153.221C153.221 92.4071 153.128 92.0295 152.943 91.7005C152.758 91.3715 152.501 91.1144 152.172 90.9291C151.847 90.7391 151.47 90.6441 151.039 90.6441C150.589 90.6441 150.191 90.7484 149.844 90.9569C149.501 91.1607 149.232 91.4364 149.037 91.7839C148.843 92.1268 148.743 92.509 148.738 92.9306V94.675C148.738 95.2032 148.836 95.6596 149.03 96.0442C149.23 96.4287 149.51 96.7252 149.871 96.9337C150.233 97.1422 150.661 97.2465 151.157 97.2465C151.486 97.2465 151.787 97.2002 152.061 97.1075C152.334 97.0148 152.568 96.8758 152.762 96.6905C152.957 96.5052 153.105 96.2781 153.207 96.0094L155.945 96.1901C155.807 96.848 155.522 97.4225 155.091 97.9137C154.664 98.4002 154.113 98.7801 153.437 99.0535C152.765 99.3222 151.989 99.4565 151.108 99.4565ZM160.223 88.5731L162.183 92.3051L164.192 88.5731H167.229L164.136 93.9106L167.312 99.248H164.289L162.183 95.5577L160.112 99.248H157.054L160.223 93.9106L157.165 88.5731H160.223ZM173.572 99.248V85.0147H176.581V96.7669H182.683V99.248H173.572ZM185.111 103.251C184.735 103.251 184.383 103.221 184.054 103.161C183.73 103.105 183.461 103.033 183.248 102.945L183.915 100.735C184.263 100.842 184.575 100.9 184.853 100.909C185.136 100.918 185.379 100.853 185.583 100.714C185.792 100.575 185.961 100.339 186.091 100.006L186.264 99.5538L182.435 88.5731H185.548L187.758 96.4125H187.87L190.101 88.5731H193.235L189.086 100.402C188.887 100.976 188.616 101.477 188.273 101.903C187.935 102.334 187.506 102.665 186.987 102.897C186.468 103.133 185.843 103.251 185.111 103.251ZM203.632 91.6171L200.922 91.7839C200.875 91.5522 200.776 91.3437 200.623 91.1584C200.47 90.9684 200.268 90.8179 200.018 90.7067C199.772 90.5908 199.478 90.5329 199.135 90.5329C198.677 90.5329 198.29 90.6302 197.975 90.8248C197.66 91.0148 197.502 91.2696 197.502 91.5893C197.502 91.8441 197.604 92.0596 197.808 92.2356C198.012 92.4117 198.362 92.553 198.857 92.6596L200.789 93.0488C201.827 93.2619 202.601 93.6048 203.111 94.0773C203.62 94.5499 203.875 95.1708 203.875 95.9399C203.875 96.6395 203.669 97.2534 203.257 97.7816C202.849 98.3098 202.288 98.7222 201.575 99.0187C200.866 99.3106 200.048 99.4565 199.122 99.4565C197.708 99.4565 196.583 99.1623 195.744 98.5739C194.91 97.9809 194.421 97.1747 194.277 96.1554L197.189 96.0025C197.277 96.4334 197.491 96.7623 197.829 96.9893C198.167 97.2117 198.6 97.3229 199.128 97.3229C199.647 97.3229 200.064 97.2233 200.379 97.0241C200.699 96.8202 200.861 96.5584 200.866 96.2388C200.861 95.97 200.748 95.7499 200.525 95.5785C200.303 95.4025 199.96 95.2681 199.497 95.1754L197.648 94.8071C196.606 94.5986 195.83 94.2372 195.32 93.7229C194.815 93.2086 194.562 92.553 194.562 91.7561C194.562 91.0704 194.748 90.4796 195.118 89.9839C195.494 89.4881 196.02 89.1059 196.696 88.8372C197.377 88.5684 198.174 88.4341 199.087 88.4341C200.435 88.4341 201.496 88.719 202.27 89.2889C203.048 89.8588 203.502 90.6348 203.632 91.6171ZM208.784 99.4496C208.102 99.4496 207.496 99.3314 206.963 99.0951C206.43 98.8542 206.008 98.4998 205.698 98.0318C205.392 97.5592 205.239 96.9708 205.239 96.2666C205.239 95.6735 205.348 95.1754 205.566 94.7723C205.784 94.3692 206.08 94.0449 206.455 93.7994C206.831 93.5538 207.257 93.3685 207.734 93.2434C208.216 93.1183 208.721 93.0302 209.249 92.9793C209.87 92.9144 210.37 92.8542 210.75 92.7986C211.13 92.7383 211.406 92.6503 211.577 92.5345C211.749 92.4186 211.835 92.2472 211.835 92.0202V91.9785C211.835 91.5383 211.696 91.1978 211.418 90.9569C211.144 90.7159 210.755 90.5955 210.25 90.5955C209.717 90.5955 209.293 90.7136 208.978 90.9499C208.663 91.1816 208.455 91.4735 208.353 91.8256L205.614 91.6032C205.753 90.9545 206.027 90.3939 206.435 89.9213C206.842 89.4441 207.368 89.0781 208.012 88.8233C208.661 88.5638 209.411 88.4341 210.264 88.4341C210.857 88.4341 211.425 88.5036 211.967 88.6426C212.513 88.7816 212.998 88.997 213.419 89.2889C213.845 89.5808 214.181 89.9561 214.427 90.4148C214.672 90.8688 214.795 91.4132 214.795 92.048V99.248H211.987V97.7677H211.904C211.733 98.1013 211.503 98.3955 211.216 98.6504C210.929 98.9006 210.584 99.0975 210.18 99.2411C209.777 99.3801 209.312 99.4496 208.784 99.4496ZM209.631 97.4063C210.067 97.4063 210.452 97.3206 210.785 97.1492C211.119 96.9731 211.381 96.7368 211.57 96.4403C211.76 96.1438 211.855 95.8079 211.855 95.4326V94.2997C211.763 94.36 211.635 94.4156 211.473 94.4665C211.316 94.5129 211.137 94.5569 210.938 94.5986C210.739 94.6357 210.54 94.6704 210.34 94.7028C210.141 94.7306 209.96 94.7561 209.798 94.7793C209.451 94.8303 209.147 94.9113 208.888 95.0225C208.628 95.1337 208.427 95.2843 208.283 95.4743C208.14 95.6596 208.068 95.8913 208.068 96.1693C208.068 96.5723 208.214 96.8805 208.506 97.0936C208.802 97.3021 209.177 97.4063 209.631 97.4063ZM219.775 96.1762L219.782 92.6248H220.213L223.632 88.5731H227.03L222.437 93.9384H221.735L219.775 96.1762ZM217.092 99.248V85.0147H220.053V99.248H217.092ZM223.764 99.248L220.623 94.5986L222.596 92.5067L227.232 99.248H223.764Z" fill="#1C1C1E"/>
</g>
</g>
</g>
<defs>
<filter id="filter0_d_855_2981" x="87.162" y="40.081" width="213.676" height="93.8049" filterUnits="userSpaceOnUse" color-interpolation-filters="sRGB">
<feFlood flood-opacity="0" result="BackgroundImageFix"/>
<feColorMatrix in="SourceAlpha" type="matrix" values="0 0 0 0 0 0 0 0 0 0 0 0 0 0 0 0 0 0 127 0" result="hardAlpha"/>
<feOffset dy="5.919"/>
<feGaussianBlur stdDeviation="5.919"/>
<feComposite in2="hardAlpha" operator="out"/>
<feColorMatrix type="matrix" values="0 0 0 0 0 0 0 0 0 0 0 0 0 0 0 0 0 0 0.05 0"/>
<feBlend mode="normal" in2="BackgroundImageFix" result="effect1_dropShadow_855_2981"/>
<feBlend mode="normal" in="SourceGraphic" in2="effect1_dropShadow_855_2981" result="shape"/>
</filter>
<linearGradient id="paint0_linear_855_2981" x1="95.0417" y1="48.922" x2="288.247" y2="121.698" gradientUnits="userSpaceOnUse">
<stop stop-color="white"/>
<stop offset="1" stop-color="#EBEEF2"/>
</linearGradient>
<linearGradient id="paint1_linear_855_2981" x1="95.0417" y1="48.922" x2="288.247" y2="121.698" gradientUnits="userSpaceOnUse">
<stop stop-color="white"/>
<stop offset="1" stop-color="#EBEEF2"/>
</linearGradient>
</defs>
</svg>
