<?xml version="1.0" encoding="iso-8859-1"?>
<!-- Generator: Adobe Illustrator 19.0.0, SVG Export Plug-In . SVG Version: 6.00 Build 0)  -->
<svg version="1.1" id="Layer_1" xmlns="http://www.w3.org/2000/svg" xmlns:xlink="http://www.w3.org/1999/xlink" x="0px" y="0px"
	 viewBox="0 0 512 512" style="enable-background:new 0 0 512 512;" xml:space="preserve">
<circle style="fill:#FEE187;" cx="256" cy="256" r="256"/>
<path style="fill:#FFC61B;" d="M281.99,510.695c120.763-12.176,216.747-108.285,228.74-229.104L377.956,148.875L267.105,288.94
	l-3.491,2.529l-129.388,72.297L281.99,510.695z"/>
<path style="fill:#4B87EA;" d="M368.568,367.48H143.432c-7.333,0-13.278-5.944-13.278-13.278V158.263
	c0-7.333,5.944-13.278,13.278-13.278h225.133c7.333,0,13.278,5.944,13.278,13.278v195.937
	C381.845,361.534,375.899,367.48,368.568,367.48z"/>
<path style="fill:#A9A9A9;" d="M381.845,179.345h-251.69v-21.082c0-7.333,5.944-13.278,13.278-13.278h225.133
	c7.333,0,13.278,5.944,13.278,13.278v21.082H381.845z"/>
<path style="fill:#EFEFEF;" d="M130.155,274.185v80.015c0,7.333,5.944,13.278,13.278,13.278h112.147v-93.293H130.155
	L130.155,274.185z"/>
<path style="fill:#396BD7;" d="M381.845,274.185H255.581v93.293h112.987c7.333,0,13.278-5.944,13.278-13.278V274.185z"/>
<g>
	<circle style="fill:#FFFFFF;" cx="152.893" cy="161.702" r="5.641"/>
	<circle style="fill:#FFFFFF;" cx="175.045" cy="161.702" r="5.641"/>
</g>
<g>
	<rect x="152.1" y="291.461" style="fill:#CCCCCC;" width="81.541" height="10.068"/>
	<rect x="152.1" y="315.009" style="fill:#CCCCCC;" width="81.541" height="10.068"/>
	<rect x="152.1" y="338.541" style="fill:#CCCCCC;" width="81.541" height="10.068"/>
</g>
<g>
</g>
<g>
</g>
<g>
</g>
<g>
</g>
<g>
</g>
<g>
</g>
<g>
</g>
<g>
</g>
<g>
</g>
<g>
</g>
<g>
</g>
<g>
</g>
<g>
</g>
<g>
</g>
<g>
</g>
</svg>
