<svg width="512" height="512" viewBox="0 0 512 512" fill="none" xmlns="http://www.w3.org/2000/svg">
<g clip-path="url(#clip0_862_2962)">
<path d="M256 512C397.385 512 512 397.385 512 256C512 114.615 397.385 0 256 0C114.615 0 0 114.615 0 256C0 397.385 114.615 512 256 512Z" fill="#D3D6DF"/>
<path d="M506.928 306.922L385.427 185.004L236.094 278.276L215.58 256.191L126.602 327.021L307.129 506.888C407.562 486.531 486.651 407.385 506.928 306.922Z" fill="#A7ADBF"/>
<path d="M368.469 335.174C293.489 340.361 218.51 340.361 143.53 335.174C132.326 334.353 120.878 324.427 118.825 313.182C112.095 275.061 112.095 236.941 118.825 198.82C120.878 187.575 132.327 177.65 143.53 176.828C218.51 171.641 293.489 171.641 368.469 176.828C379.673 177.65 391.119 187.575 393.174 198.82C399.904 236.941 399.904 275.061 393.174 313.182C391.121 324.427 379.673 334.352 368.469 335.174Z" fill="#C92F00"/>
<path d="M238.074 221.189L298.285 256L238.074 290.811V221.189Z" fill="white"/>
</g>
<defs>
<clipPath id="clip0_862_2962">
<rect width="512" height="512" fill="white"/>
</clipPath>
</defs>
</svg>
