<svg width="319" height="59" viewBox="0 0 319 59" fill="none" xmlns="http://www.w3.org/2000/svg">
<path d="M94.6729 48.5461C91.8533 48.5461 89.694 47.743 88.195 46.1369C86.7317 44.5309 86 42.2645 86 39.3378V19.2082C86 16.2816 86.7317 14.0152 88.195 12.4091C89.694 10.803 91.8533 10 94.6729 10C97.4924 10 99.6339 10.803 101.097 12.4091C102.596 14.0152 103.346 16.2816 103.346 19.2082V23.1699H97.778V18.8335C97.778 16.5136 96.7965 15.3536 94.8335 15.3536C92.8705 15.3536 91.889 16.5136 91.889 18.8335V39.7661C91.889 42.0503 92.8705 43.1925 94.8335 43.1925C96.7965 43.1925 97.778 42.0503 97.778 39.7661V34.0378H103.346V39.3378C103.346 42.2645 102.596 44.5309 101.097 46.1369C99.6339 47.743 97.4924 48.5461 94.6729 48.5461Z" fill="#5E021E"/>
<path d="M111.42 10.5354H119.397L125.5 48.0107H119.611L118.54 40.5692V40.6763H111.848L110.777 48.0107H105.317L111.42 10.5354ZM117.844 35.5903L115.221 17.0668H115.114L112.544 35.5903H117.844Z" fill="#5E021E"/>
<path d="M135.856 48.5461C133 48.5461 130.841 47.743 129.378 46.1369C127.914 44.4952 127.183 42.1574 127.183 39.1237V36.9823H132.75V39.552C132.75 41.979 133.768 43.1925 135.802 43.1925C136.801 43.1925 137.551 42.9069 138.051 42.3359C138.586 41.7291 138.854 40.7655 138.854 39.4449C138.854 37.8745 138.497 36.5004 137.783 35.3226C137.069 34.1091 135.749 32.6637 133.821 30.9862C131.394 28.8447 129.699 26.9174 128.735 25.2043C127.772 23.4554 127.29 21.4924 127.29 19.3153C127.29 16.353 128.039 14.0688 129.538 12.4627C131.037 10.8209 133.214 10 136.07 10C138.889 10 141.013 10.8209 142.441 12.4627C143.904 14.0688 144.636 16.3887 144.636 19.4224V20.9749H139.068V19.0476C139.068 17.7628 138.818 16.8348 138.318 16.2637C137.819 15.657 137.087 15.3536 136.123 15.3536C134.16 15.3536 133.179 16.5493 133.179 18.9405C133.179 20.2968 133.536 21.5638 134.25 22.7416C134.999 23.9194 136.337 25.347 138.265 27.0245C140.727 29.166 142.423 31.1111 143.351 32.86C144.279 34.6088 144.743 36.661 144.743 39.0166C144.743 42.086 143.975 44.4416 142.441 46.0834C140.942 47.7252 138.747 48.5461 135.856 48.5461Z" fill="#5E021E"/>
<path d="M148.119 10.5354H154.008V48.0107H148.119V10.5354Z" fill="#5E021E"/>
<path d="M158.419 10.5354H165.807L171.535 32.967H171.642V10.5354H176.889V48.0107H170.839L163.772 20.6537H163.665V48.0107H158.419V10.5354Z" fill="#5E021E"/>
<path d="M189.778 48.5461C186.887 48.5461 184.674 47.7252 183.139 46.0834C181.605 44.4416 180.837 42.1217 180.837 39.1237V19.4224C180.837 16.4243 181.605 14.1044 183.139 12.4627C184.674 10.8209 186.887 10 189.778 10C192.669 10 194.882 10.8209 196.416 12.4627C197.951 14.1044 198.718 16.4243 198.718 19.4224V39.1237C198.718 42.1217 197.951 44.4416 196.416 46.0834C194.882 47.7252 192.669 48.5461 189.778 48.5461ZM189.778 43.1925C191.812 43.1925 192.829 41.9611 192.829 39.4985V19.0476C192.829 16.585 191.812 15.3536 189.778 15.3536C187.743 15.3536 186.726 16.585 186.726 19.0476V39.4985C186.726 41.9611 187.743 43.1925 189.778 43.1925Z" fill="#5E021E"/>
<path d="M211.275 10.5354H217.164V42.6571H226.854V48.0107H211.275V10.5354Z" fill="#5E021E"/>
<path d="M234.438 10.5354H242.415L248.518 48.0107H242.629L241.558 40.5692V40.6763H234.866L233.796 48.0107H228.335L234.438 10.5354ZM240.862 35.5903L238.239 17.0668H238.132L235.562 35.5903H240.862Z" fill="#5E021E"/>
<path d="M253.522 15.889H247.365V10.5354H265.568V15.889H259.411V48.0107H253.522V15.889Z" fill="#5E021E"/>
<path d="M267.075 10.5354H273.018L276.872 39.6055H276.98L280.834 10.5354H286.241L280.566 48.0107H272.75L267.075 10.5354Z" fill="#5E021E"/>
<path d="M289.07 10.5354H294.959V48.0107H289.07V10.5354Z" fill="#5E021E"/>
<path d="M303.92 10.5354H311.897L318 48.0107H312.111L311.04 40.5692V40.6763H304.348L303.278 48.0107H297.817L303.92 10.5354ZM310.344 35.5903L307.721 17.0668H307.614L305.044 35.5903H310.344Z" fill="#5E021E"/>
<path d="M95.6729 48.5461C92.8533 48.5461 90.694 47.743 89.195 46.1369C87.7317 44.5309 87 42.2645 87 39.3378V19.2082C87 16.2816 87.7317 14.0152 89.195 12.4091C90.694 10.803 92.8533 10 95.6729 10C98.4924 10 100.634 10.803 102.097 12.4091C103.596 14.0152 104.346 16.2816 104.346 19.2082V23.1699H98.778V18.8335C98.778 16.5136 97.7965 15.3536 95.8335 15.3536C93.8705 15.3536 92.889 16.5136 92.889 18.8335V39.7661C92.889 42.0503 93.8705 43.1925 95.8335 43.1925C97.7965 43.1925 98.778 42.0503 98.778 39.7661V34.0378H104.346V39.3378C104.346 42.2645 103.596 44.5309 102.097 46.1369C100.634 47.743 98.4924 48.5461 95.6729 48.5461Z" fill="#5E021E"/>
<path d="M112.42 10.5354H120.397L126.5 48.0107H120.611L119.54 40.5692V40.6763H112.848L111.777 48.0107H106.317L112.42 10.5354ZM118.844 35.5903L116.221 17.0668H116.114L113.544 35.5903H118.844Z" fill="#5E021E"/>
<path d="M136.856 48.5461C134 48.5461 131.841 47.743 130.378 46.1369C128.914 44.4952 128.183 42.1574 128.183 39.1237V36.9823H133.75V39.552C133.75 41.979 134.768 43.1925 136.802 43.1925C137.801 43.1925 138.551 42.9069 139.051 42.3359C139.586 41.7291 139.854 40.7655 139.854 39.4449C139.854 37.8745 139.497 36.5004 138.783 35.3226C138.069 34.1091 136.749 32.6637 134.821 30.9862C132.394 28.8447 130.699 26.9174 129.735 25.2043C128.772 23.4554 128.29 21.4924 128.29 19.3153C128.29 16.353 129.039 14.0688 130.538 12.4627C132.037 10.8209 134.214 10 137.07 10C139.889 10 142.013 10.8209 143.441 12.4627C144.904 14.0688 145.636 16.3887 145.636 19.4224V20.9749H140.068V19.0476C140.068 17.7628 139.818 16.8348 139.318 16.2637C138.819 15.657 138.087 15.3536 137.123 15.3536C135.16 15.3536 134.179 16.5493 134.179 18.9405C134.179 20.2968 134.536 21.5638 135.25 22.7416C135.999 23.9194 137.337 25.347 139.265 27.0245C141.727 29.166 143.423 31.1111 144.351 32.86C145.279 34.6088 145.743 36.661 145.743 39.0166C145.743 42.086 144.975 44.4416 143.441 46.0834C141.942 47.7252 139.747 48.5461 136.856 48.5461Z" fill="#5E021E"/>
<path d="M149.119 10.5354H155.008V48.0107H149.119V10.5354Z" fill="#5E021E"/>
<path d="M159.419 10.5354H166.807L172.535 32.967H172.642V10.5354H177.889V48.0107H171.839L164.772 20.6537H164.665V48.0107H159.419V10.5354Z" fill="#5E021E"/>
<path d="M190.778 48.5461C187.887 48.5461 185.674 47.7252 184.139 46.0834C182.605 44.4416 181.837 42.1217 181.837 39.1237V19.4224C181.837 16.4243 182.605 14.1044 184.139 12.4627C185.674 10.8209 187.887 10 190.778 10C193.669 10 195.882 10.8209 197.416 12.4627C198.951 14.1044 199.718 16.4243 199.718 19.4224V39.1237C199.718 42.1217 198.951 44.4416 197.416 46.0834C195.882 47.7252 193.669 48.5461 190.778 48.5461ZM190.778 43.1925C192.812 43.1925 193.829 41.9611 193.829 39.4985V19.0476C193.829 16.585 192.812 15.3536 190.778 15.3536C188.743 15.3536 187.726 16.585 187.726 19.0476V39.4985C187.726 41.9611 188.743 43.1925 190.778 43.1925Z" fill="#5E021E"/>
<path d="M212.275 10.5354H218.164V42.6571H227.854V48.0107H212.275V10.5354Z" fill="#5E021E"/>
<path d="M235.438 10.5354H243.415L249.518 48.0107H243.629L242.558 40.5692V40.6763H235.866L234.796 48.0107H229.335L235.438 10.5354ZM241.862 35.5903L239.239 17.0668H239.132L236.562 35.5903H241.862Z" fill="#5E021E"/>
<path d="M254.522 15.889H248.365V10.5354H266.568V15.889H260.411V48.0107H254.522V15.889Z" fill="#5E021E"/>
<path d="M268.075 10.5354H274.018L277.872 39.6055H277.98L281.834 10.5354H287.241L281.566 48.0107H273.75L268.075 10.5354Z" fill="#5E021E"/>
<path d="M290.07 10.5354H295.959V48.0107H290.07V10.5354Z" fill="#5E021E"/>
<path d="M304.92 10.5354H312.897L319 48.0107H313.111L312.04 40.5692V40.6763H305.348L304.278 48.0107H298.817L304.92 10.5354ZM311.344 35.5903L308.721 17.0668H308.614L306.044 35.5903H311.344Z" fill="#5E021E"/>
<path d="M0.991973 37.6642L30.5098 19.5985C31.235 19.2033 32.0452 18.9895 32.871 18.9754C33.6969 18.9612 34.5139 19.1471 35.2523 19.5172L63.7886 36.6795C65.0965 37.4191 65.0152 38.7238 63.7072 39.5415L34.1894 57.6072C33.4642 58.0023 32.654 58.2161 31.8282 58.2303C31.0024 58.2445 30.1854 58.0586 29.447 57.6885L0.909568 40.5261C-0.315937 39.7898 -0.315938 38.4819 0.991973 37.6642Z" fill="#5E021E"/>
<path d="M0.991973 30.1412L30.5098 12.0756C31.235 11.6804 32.0452 11.4666 32.871 11.4524C33.6969 11.4382 34.5139 11.6241 35.2523 11.9942L63.7886 29.1566C65.0965 29.8961 65.0152 31.2009 63.7072 32.0186L34.1894 50.0842C33.4642 50.4794 32.654 50.6932 31.8282 50.7074C31.0024 50.7215 30.1854 50.5356 29.447 50.1656L0.909568 33.0032C-0.315937 32.2668 -0.315938 30.9589 0.991973 30.1412Z" fill="#A20938"/>
<path d="M0.99224 18.6943L30.51 0.624459C31.2352 0.229108 32.0453 0.0151222 32.8712 0.000772655C33.697 -0.0135769 34.514 0.172136 35.2525 0.542054L63.7889 17.6315C65.0968 18.3711 65.0154 19.6758 63.7075 20.4935L34.1897 38.5592C33.4644 38.9543 32.6543 39.1681 31.8285 39.1823C31.0026 39.1965 30.1856 39.0106 29.4472 38.6405L0.909836 21.475C0.633083 21.3576 0.398224 21.1593 0.236001 20.9062C0.0737779 20.6532 -0.00824979 20.357 0.00065533 20.0565C0.00956045 19.756 0.108983 19.4652 0.28591 19.2221C0.462836 18.9791 0.709022 18.7951 0.99224 18.6943Z" fill="#5E021E"/>
<path d="M33.6126 11.3637C37.8976 11.3736 41.3892 13.3895 41.4064 15.8634L41.4064 24.867L25.7981 24.8749C21.5131 24.865 18.0215 22.8491 18.0043 20.3751C18.0043 17.8913 21.5131 15.8654 25.8153 15.8654C25.8153 13.3815 29.2949 11.3726 33.6126 11.3637Z" fill="white"/>
</svg>
